<?xml version="1.0" encoding="UTF-8" standalone="no"?>
<!-- Created with Inkscape (http://www.inkscape.org/) -->

<svg
   width="200mm"
   height="200mm"
   viewBox="0 0 200 200"
   version="1.1"
   id="svg1"
   inkscape:version="1.4.2 (f4327f4, 2025-05-13)"
   sodipodi:docname="phonic_logo_nobg.svg"
   xmlns:inkscape="http://www.inkscape.org/namespaces/inkscape"
   xmlns:sodipodi="http://sodipodi.sourceforge.net/DTD/sodipodi-0.dtd"
   xmlns="http://www.w3.org/2000/svg"
   xmlns:svg="http://www.w3.org/2000/svg">
  <sodipodi:namedview
     id="namedview1"
     pagecolor="#ffffff"
     bordercolor="#000000"
     borderopacity="0.25"
     inkscape:showpageshadow="2"
     inkscape:pageopacity="0.0"
     inkscape:pagecheckerboard="0"
     inkscape:deskcolor="#d1d1d1"
     inkscape:document-units="mm"
     inkscape:zoom="0.72604517"
     inkscape:cx="397.3582"
     inkscape:cy="391.8489"
     inkscape:window-width="1920"
     inkscape:window-height="1017"
     inkscape:window-x="-8"
     inkscape:window-y="-8"
     inkscape:window-maximized="1"
     inkscape:current-layer="g1" />
  <defs
     id="defs1" />
  <g
     inkscape:label="Layer 1"
     inkscape:groupmode="layer"
     id="layer1">
    <g
       id="g1"
       transform="translate(-8.176699,-5.6688879)">
      <path
         style="font-size:53.1984px;font-family:'Canela Deck Trial';-inkscape-font-specification:'Canela Deck Trial';letter-spacing:-1.19696px;fill:#b4d9c7;stroke-width:2.13444"
         d="m 30.247238,129.66129 h 7.97976 v -0.1064 c -1.117166,-2.97911 -1.223563,-5.79862 -1.223563,-10.58648 v -1.54275 c 1.702349,0.74477 3.830285,1.27676 6.383808,1.27676 9.256521,0 13.61879,-6.38381 13.61879,-14.20397 0,-7.926566 -4.149475,-13.671993 -10.692878,-13.671993 -4.309071,0 -7.288181,2.287531 -9.203323,4.628261 l -0.319191,-0.0532 v -4.841054 l -7.820164,2.925912 v 0.106397 c 1.383158,1.489555 2.553523,3.511094 2.553523,7.181787 v 18.24705 c 0,4.84105 -0.265992,7.55417 -1.276762,10.53328 z M 43.81283,117.10647 c -3.032309,0 -6.809395,-2.18114 -6.809395,-9.41612 V 97.263463 c 1.170365,-1.383158 3.191904,-2.713118 6.277411,-2.713118 4.681459,0 7.926561,3.245102 7.926561,10.958865 0,7.18179 -3.032308,11.59726 -7.394577,11.59726 z m 16.464917,0.79797 h 8.032958 v -0.10639 c -1.117167,-3.03231 -1.32996,-5.79863 -1.32996,-10.58649 v -9.575708 c 1.64915,-2.021539 3.777086,-3.085507 6.171014,-3.085507 3.67069,0 5.107046,2.553523 5.107046,5.585835 v 7.07538 c 0,4.62826 -0.265992,7.55418 -1.276761,10.58649 v 0.10639 h 8.032958 v -0.10639 c -1.117166,-3.03231 -1.223563,-5.63904 -1.223563,-10.58649 v -8.405343 c 0,-4.841055 -2.819515,-7.97976 -7.820165,-7.97976 -3.883483,0 -6.543403,2.127936 -8.937331,5.107046 h -0.0532 V 75.718112 l -7.97976,2.819515 v 0.159595 c 1.32996,1.436357 2.500325,3.511094 2.500325,7.128585 v 21.385753 c 0,4.89426 -0.212794,7.55418 -1.223563,10.58649 z m 42.000123,0.79798 c 7.82017,0 14.20397,-6.49021 14.20397,-13.88478 0,-7.394582 -6.437,-13.991183 -14.20397,-13.991183 -7.660568,0 -14.044376,6.596601 -14.097575,13.991183 -0.106396,7.39457 6.277411,13.88478 14.097575,13.88478 z m 0,-1.64915 c -5.373037,0 -8.086156,-5.79863 -8.086156,-12.23563 0,-6.43701 2.766317,-12.342033 8.086156,-12.342033 5.37304,0 8.13936,5.905023 8.13936,12.342033 0,6.437 -2.71312,12.23563 -8.13936,12.23563 z m 17.68846,0.85117 h 7.97976 v -0.10639 c -1.11716,-3.03231 -1.22356,-5.79863 -1.22356,-10.63968 v -9.575716 c 1.59595,-2.02154 3.77708,-3.032309 6.11781,-3.032309 3.67069,0 5.05385,2.553523 5.05385,5.585835 v 7.07538 c 0,4.62826 -0.21279,7.55418 -1.22356,10.58649 v 0.10639 h 8.03296 v -0.10639 c -1.17037,-3.03231 -1.27676,-5.63904 -1.27676,-10.63968 v -8.352153 c 0,-4.841055 -2.76632,-7.97976 -7.76697,-7.97976 -3.88348,0 -6.5434,2.127936 -8.93733,5.107046 l -0.2128,-0.0532 v -5.31984 l -7.82016,2.925912 v 0.106397 c 1.38316,1.489555 2.55352,3.511094 2.55352,7.181788 v 6.437 c 0,4.89426 -0.26599,7.55418 -1.27676,10.58649 z m 32.42444,-32.238228 c 1.86195,0 3.3515,-1.489555 3.3515,-3.2983 0,-1.915143 -1.48955,-3.404698 -3.3515,-3.404698 -1.86194,0 -3.2983,1.489555 -3.2983,3.404698 0,1.808745 1.43636,3.2983 3.2983,3.2983 z m -3.72388,32.238228 h 7.97976 v -0.10639 c -1.11717,-3.03231 -1.22357,-5.90503 -1.22357,-10.63968 V 90.560465 l -8.03296,2.925912 v 0.425587 c 1.38316,1.436357 2.55353,3.564293 2.55353,7.075386 v 6.22421 c 0,4.84106 -0.53199,7.55418 -1.27676,10.58649 z m 37.79741,11.75685 v -0.1064 c -1.06397,-2.97911 -1.17037,-5.79862 -1.17037,-10.58648 V 91.092449 h -0.21279 l -2.50032,2.606721 c -1.43636,-1.64915 -4.52187,-2.872713 -8.40535,-2.872713 -9.46932,0 -14.41677,7.181784 -14.41677,15.108343 0,7.39458 4.09628,12.76762 10.63968,12.76762 4.62826,0 7.76697,-2.65992 9.36292,-5.42624 v 5.74543 c 0,4.84105 -0.21279,7.55417 -1.27676,10.53328 v 0.1064 z m -20.90697,-25.58843 c 0,-6.756198 3.1387,-11.597253 7.87336,-11.597253 2.60672,0 5.42624,1.383159 6.33061,6.011419 v 13.033604 c -1.48955,2.02154 -3.67069,3.3515 -6.5434,3.3515 -5.05385,0 -7.66057,-4.30907 -7.66057,-10.79927 z"
         id="text11-51-2-6-6-1-2"
         aria-label="phoniq"
         sodipodi:nodetypes="cccscssscccccssccsscssscccscsssccccssscccccssccssscsssssscccscsssccccssscccccssccssssscccscccssccccscccssscscccssccss" />
      <path
         style="font-size:4.93889px;font-family:'Test Söhne';-inkscape-font-specification:'Test Söhne';letter-spacing:2.12725px;fill:#b4d9c7;stroke-width:2.965"
         d="m 56.243898,129.19667 h 1.412522 c 0.716139,0 1.165578,-0.36054 1.165578,-0.9779 0,-0.44944 -0.2667,-0.76059 -0.66675,-0.86924 0.271639,-0.0938 0.548217,-0.32103 0.548217,-0.77541 0,-0.59267 -0.40005,-0.92357 -1.150761,-0.92357 h -1.308806 z m 0.459317,-2.02494 v -1.12113 h 0.809977 c 0.474134,0 0.735895,0.18274 0.735895,0.56303 0,0.37536 -0.261761,0.5581 -0.735895,0.5581 z m 0,0.40498 h 0.93345 c 0.474133,0 0.730955,0.24695 0.730955,0.60749 0,0.36548 -0.256822,0.61242 -0.730955,0.61242 h -0.93345 z m 4.784372,-1.41252 h 0.484011 v -0.51364 h -0.484011 z m 0.464256,0.44944 h -0.444501 v 2.58304 h 0.444501 z m 5.090582,1.29399 c 0,-0.8001 -0.493889,-1.34338 -1.20015,-1.34338 -0.706262,0 -1.200151,0.54328 -1.200151,1.34338 0,0.8001 0.493889,1.34338 1.200151,1.34338 0.706261,0 1.20015,-0.54328 1.20015,-1.34338 z m -1.950862,0 c 0,-0.59267 0.296334,-0.96802 0.750712,-0.96802 0.454378,0 0.750711,0.37535 0.750711,0.96802 0,0.58773 -0.296333,0.96308 -0.750711,0.96308 -0.454378,0 -0.750712,-0.37535 -0.750712,-0.96308 z m 5.288136,1.3335 c 0.350661,0 0.637117,-0.13335 0.795161,-0.33584 0.05433,0.24694 0.281517,0.34078 0.676628,0.29139 v -0.3556 c -0.172861,0.0395 -0.276578,-0.0148 -0.276578,-0.18274 v -1.25942 c 0,-0.55315 -0.3556,-0.83467 -0.93345,-0.83467 -0.528461,0 -0.908756,0.30127 -1.032228,0.72108 l 0.419806,0.10866 c 0.07902,-0.28646 0.271639,-0.43957 0.597605,-0.43957 0.345723,0 0.508706,0.16793 0.508706,0.46426 v 0.10866 l -0.627239,0.12841 c -0.57785,0.11853 -0.9779,0.3309 -0.9779,0.84455 0,0.46425 0.380294,0.74083 0.849489,0.74083 z m 0.75565,-0.92357 c 0,0.3309 -0.321028,0.56303 -0.701322,0.56303 -0.281517,0 -0.464256,-0.14817 -0.464256,-0.40005 0,-0.31115 0.2667,-0.4198 0.661811,-0.49883 l 0.503767,-0.10865 z m 3.589166,-0.40993 c 0,-0.59267 0.316089,-0.95814 0.775406,-0.95814 0.3556,0 0.567972,0.23212 0.642056,0.54821 l 0.385233,-0.19261 c -0.123472,-0.42969 -0.48895,-0.74084 -1.027289,-0.74084 -0.721078,0 -1.219906,0.54328 -1.219906,1.34338 0,0.79516 0.498828,1.34338 1.219906,1.34338 0.538339,0 0.913695,-0.32597 1.037167,-0.75565 l -0.395111,-0.18274 c -0.07408,0.32103 -0.286456,0.54822 -0.642056,0.54822 -0.459317,0 -0.775406,-0.36548 -0.775406,-0.95321 z m 6.651275,0 c 0,-0.8001 -0.493889,-1.34338 -1.20015,-1.34338 -0.706261,0 -1.20015,0.54328 -1.20015,1.34338 0,0.8001 0.493889,1.34338 1.20015,1.34338 0.706261,0 1.20015,-0.54328 1.20015,-1.34338 z m -1.950861,0 c 0,-0.59267 0.296333,-0.96802 0.750711,-0.96802 0.454378,0 0.750711,0.37535 0.750711,0.96802 0,0.58773 -0.296333,0.96308 -0.750711,0.96308 -0.454378,0 -0.750711,-0.37535 -0.750711,-0.96308 z m 6.690781,-1.29399 h -0.4445 v 1.55575 c 0,0.42968 -0.325967,0.67169 -0.646995,0.67169 -0.380294,0 -0.538339,-0.24694 -0.538339,-0.61242 v -1.61502 h -0.4445 v 1.70886 c 0,0.54821 0.31115,0.92851 0.864306,0.92851 0.365478,0 0.617361,-0.19262 0.765528,-0.40993 v 0.3556 h 0.4445 z m 2.576684,2.03482 c 0.197555,0.40005 0.66675,0.60255 1.135945,0.60255 0.553155,0 1.002594,-0.32597 1.002594,-0.81986 0,-0.56303 -0.508705,-0.65193 -0.953206,-0.75565 -0.360538,-0.079 -0.587727,-0.12347 -0.587727,-0.36548 0,-0.23212 0.197555,-0.38029 0.493889,-0.38029 0.325966,0 0.567972,0.16298 0.701322,0.41981 l 0.316089,-0.25189 c -0.153106,-0.30621 -0.5334,-0.5334 -0.997656,-0.5334 -0.548217,0 -0.948267,0.32103 -0.948267,0.78035 0,0.52846 0.4445,0.6223 0.869245,0.71614 0.424744,0.0889 0.671689,0.12841 0.671689,0.40992 0,0.28152 -0.2667,0.40993 -0.567972,0.40993 -0.335845,0 -0.651934,-0.18274 -0.790223,-0.48401 z m 4.88315,-0.0691 c 0,0.49389 0.251883,0.64205 0.691444,0.64205 0.148167,0 0.276578,-0.0148 0.390173,-0.0395 v -0.38029 c -0.103717,0.0198 -0.1778,0.0296 -0.281517,0.0296 -0.227189,0 -0.360539,-0.0494 -0.360539,-0.32103 v -1.51623 h 0.587728 v -0.3803 h -0.587728 v -0.75565 h -0.439561 v 0.75565 h -0.40005 v 0.3803 h 0.40005 z m 3.717576,-2.41512 h 0.484012 v -0.51364 H 97.29312 Z m 0.464256,0.44944 h -0.4445 v 2.58304 h 0.4445 z m 3.134784,1.29399 c 0,-0.59267 0.31608,-0.95814 0.7754,-0.95814 0.3556,0 0.56797,0.23212 0.64206,0.54821 l 0.38523,-0.19261 c -0.12347,-0.42969 -0.48895,-0.74084 -1.02729,-0.74084 -0.72108,0 -1.2199,0.54328 -1.2199,1.34338 0,0.79516 0.49882,1.34338 1.2199,1.34338 0.53834,0 0.9137,-0.32597 1.03717,-0.75565 l -0.39511,-0.18274 c -0.0741,0.32103 -0.28646,0.54822 -0.64206,0.54822 -0.45932,0 -0.7754,-0.36548 -0.7754,-0.95321 z m 8.09202,-2.25707 h -0.47413 v 3.54612 h 0.47413 z m 2.88784,3.54612 h 0.4445 v -1.54093 c 0,-0.42969 0.32596,-0.67663 0.64699,-0.67663 0.38523,0 0.53834,0.27164 0.53834,0.63218 v 1.58538 h 0.4445 v -1.70392 c 0,-0.54821 -0.31115,-0.92851 -0.85937,-0.92851 -0.36548,0 -0.6223,0.18768 -0.77046,0.40005 v -0.35066 h -0.4445 z m 4.98192,-0.61736 c 0,0.49389 0.25188,0.64205 0.69144,0.64205 0.14817,0 0.27658,-0.0148 0.39018,-0.0395 v -0.38029 c -0.10372,0.0198 -0.1778,0.0296 -0.28152,0.0296 -0.22719,0 -0.36054,-0.0494 -0.36054,-0.32103 v -1.51623 h 0.58773 v -0.3803 h -0.58773 v -0.75565 h -0.43956 v 0.75565 h -0.40005 v 0.3803 h 0.40005 z m 4.75474,0.67169 c 0.51364,0 0.90382,-0.28152 1.06186,-0.74084 l -0.39017,-0.13828 c -0.079,0.30621 -0.32597,0.49388 -0.67169,0.49388 -0.44944,0 -0.76059,-0.34572 -0.78528,-0.889 h 1.8669 v -0.14816 c 0,-0.71614 -0.3803,-1.26436 -1.10138,-1.26436 -0.70132,0 -1.19027,0.57291 -1.19027,1.34338 0,0.79516 0.49389,1.34338 1.21003,1.34338 z m -0.0247,-2.30646 c 0.44943,0 0.64699,0.32596 0.65687,0.69144 h -1.39277 c 0.079,-0.43956 0.36054,-0.69144 0.7359,-0.69144 z m 4.23121,-1.29399 h -0.4445 v 3.54612 h 0.4445 z m 3.31259,0 h -0.4445 v 3.54612 h 0.4445 z m 2.84833,0.51364 h 0.48401 v -0.51364 h -0.48401 z m 0.46425,0.44944 h -0.4445 v 2.58304 h 0.4445 z m 5.05601,2.35091 v -2.35091 h -0.4445 v 0.3803 c -0.13829,-0.25189 -0.43462,-0.42969 -0.79022,-0.42969 -0.70626,0 -1.12113,0.58279 -1.12113,1.28411 0,0.70626 0.41487,1.28905 1.12113,1.28905 0.36054,0 0.65193,-0.1778 0.79022,-0.42968 v 0.29139 c 0,0.53834 -0.30127,0.77047 -0.75565,0.77047 -0.36054,0 -0.62724,-0.19261 -0.7112,-0.52352 l -0.41486,0.15804 c 0.14322,0.47414 0.55809,0.7359 1.12606,0.7359 0.70132,0 1.20015,-0.41981 1.20015,-1.17546 z m -0.43956,-1.1557 v 0.0938 c 0,0.56797 -0.34572,0.84455 -0.71614,0.84455 -0.46919,0 -0.75565,-0.3556 -0.75565,-0.89888 0,-0.54327 0.28646,-0.89394 0.75565,-0.89394 0.37042,0 0.71614,0.27658 0.71614,0.85443 z m 4.33988,1.44216 c 0.51364,0 0.90381,-0.28152 1.06186,-0.74084 l -0.39017,-0.13828 c -0.079,0.30621 -0.32597,0.49388 -0.67169,0.49388 -0.44944,0 -0.76059,-0.34572 -0.78529,-0.889 h 1.8669 v -0.14816 c 0,-0.71614 -0.38029,-1.26436 -1.10137,-1.26436 -0.70132,0 -1.19027,0.57291 -1.19027,1.34338 0,0.79516 0.49389,1.34338 1.21003,1.34338 z m -0.0247,-2.30646 c 0.44944,0 0.647,0.32596 0.65688,0.69144 h -1.39277 c 0.079,-0.43956 0.36054,-0.69144 0.73589,-0.69144 z m 3.78672,2.25213 h 0.4445 v -1.54093 c 0,-0.42969 0.32597,-0.67663 0.64699,-0.67663 0.38524,0 0.53834,0.27164 0.53834,0.63218 v 1.58538 h 0.4445 v -1.70392 c 0,-0.54821 -0.31115,-0.92851 -0.85936,-0.92851 -0.36548,0 -0.6223,0.18768 -0.77047,0.40005 v -0.35066 h -0.4445 z m 5.17948,-1.28905 c 0,-0.59267 0.31609,-0.95814 0.77541,-0.95814 0.3556,0 0.56797,0.23212 0.64205,0.54821 l 0.38524,-0.19261 c -0.12348,-0.42969 -0.48895,-0.74084 -1.02729,-0.74084 -0.72108,0 -1.21991,0.54328 -1.21991,1.34338 0,0.79516 0.49883,1.34338 1.21991,1.34338 0.53834,0 0.91369,-0.32597 1.03716,-0.75565 l -0.39511,-0.18274 c -0.0741,0.32103 -0.28645,0.54822 -0.64205,0.54822 -0.45932,0 -0.77541,-0.36548 -0.77541,-0.95321 z m 5.461,1.34338 c 0.51365,0 0.90382,-0.28152 1.06186,-0.74084 l -0.39017,-0.13828 c -0.079,0.30621 -0.32597,0.49388 -0.67169,0.49388 -0.44944,0 -0.76059,-0.34572 -0.78528,-0.889 h 1.8669 v -0.14816 c 0,-0.71614 -0.3803,-1.26436 -1.10137,-1.26436 -0.70133,0 -1.19028,0.57291 -1.19028,1.34338 0,0.79516 0.49389,1.34338 1.21003,1.34338 z m -0.0247,-2.30646 c 0.44944,0 0.64699,0.32596 0.65687,0.69144 h -1.39277 c 0.079,-0.43956 0.36054,-0.69144 0.7359,-0.69144 z"
         id="text23-2-7-7-2-5"
         aria-label="Bioacoustic Intelligence " />
      <circle
         style="fill:#e63926;fill-opacity:1;stroke-width:0.964661"
         id="circle2"
         cx="195.18405"
         cy="94.379784"
         r="3.2779167" />
    </g>
  </g>
</svg>
